<svg xmlns="http://www.w3.org/2000/svg" width="798" height="832" viewBox="0 0 798 832"><rect width="798" height="832" fill="#f4f2eb"/><path d="M 96 134 L 96 398" fill="none" stroke="#14161a" stroke-width="1.7" stroke-linecap="round" stroke-linejoin="round"/><path d="M 224 222 L 224 712" fill="none" stroke="#14161a" stroke-width="1.7" stroke-linecap="round" stroke-linejoin="round"/><path d="M 352 398 L 352 555" fill="none" stroke="#14161a" stroke-width="1.7" stroke-linecap="round" stroke-linejoin="round"/><path d="M 480 486 L 480 643" fill="none" stroke="#14161a" stroke-width="1.7" stroke-linecap="round" stroke-linejoin="round"/><path d="M 96 134 L 121 134" fill="none" stroke="#14161a" stroke-width="1.7" stroke-linecap="round" stroke-linejoin="round"/><path d="M 155 134 L 180 134" fill="none" stroke="#14161a" stroke-width="1.7" stroke-linecap="round" stroke-linejoin="round"/><path d="M 96 222 L 136 222" fill="none" stroke="#14161a" stroke-width="1.7" stroke-linecap="round" stroke-linejoin="round"/><path d="M 184 222 L 224 222" fill="none" stroke="#14161a" stroke-width="1.7" stroke-linecap="round" stroke-linejoin="round"/><path d="M 224 310 L 242 310" fill="none" stroke="#14161a" stroke-width="1.7" stroke-linecap="round" stroke-linejoin="round"/><path d="M 290 310 L 308 310" fill="none" stroke="#14161a" stroke-width="1.7" stroke-linecap="round" stroke-linejoin="round"/><path d="M 96 398 L 200 398" fill="none" stroke="#14161a" stroke-width="1.7" stroke-linecap="round" stroke-linejoin="round"/><path d="M 248 398 L 352 398" fill="none" stroke="#14161a" stroke-width="1.7" stroke-linecap="round" stroke-linejoin="round"/><path d="M 480 486 L 498 486" fill="none" stroke="#14161a" stroke-width="1.7" stroke-linecap="round" stroke-linejoin="round"/><path d="M 546 486 L 564 486" fill="none" stroke="#14161a" stroke-width="1.7" stroke-linecap="round" stroke-linejoin="round"/><path d="M 396 567 L 396 555 L 352 555" fill="none" stroke="#14161a" stroke-width="1.7" stroke-linecap="round" stroke-linejoin="round"/><path d="M 396 631 L 396 643 L 480 643" fill="none" stroke="#14161a" stroke-width="1.7" stroke-linecap="round" stroke-linejoin="round"/><path d="M 362 599 L 224 599" fill="none" stroke="#14161a" stroke-width="1.7" stroke-linecap="round" stroke-linejoin="round"/><path d="M 224 712 L 411 712" fill="none" stroke="#14161a" stroke-width="1.7" stroke-linecap="round" stroke-linejoin="round"/><path d="M 421 712 L 608 712" fill="none" stroke="#14161a" stroke-width="1.7" stroke-linecap="round" stroke-linejoin="round"/><circle cx="96" cy="222" r="3.2" fill="#14161a"/><circle cx="224" cy="310" r="3.2" fill="#14161a"/><circle cx="224" cy="599" r="3.2" fill="#14161a"/><path d="M 180 134 L 180 145" fill="none" stroke="#14161a" stroke-width="1.7" stroke-linecap="round" stroke-linejoin="round"/><path d="M 170 145 L 190 145" fill="none" stroke="#14161a" stroke-width="1.7" stroke-linecap="round" stroke-linejoin="round"/><path d="M 174 149 L 186 149" fill="none" stroke="#14161a" stroke-width="1.7" stroke-linecap="round" stroke-linejoin="round"/><path d="M 177.5 153 L 182.5 153" fill="none" stroke="#14161a" stroke-width="1.7" stroke-linecap="round" stroke-linejoin="round"/><path d="M 308 310 L 308 321" fill="none" stroke="#14161a" stroke-width="1.7" stroke-linecap="round" stroke-linejoin="round"/><path d="M 298 321 L 318 321" fill="none" stroke="#14161a" stroke-width="1.7" stroke-linecap="round" stroke-linejoin="round"/><path d="M 302 325 L 314 325" fill="none" stroke="#14161a" stroke-width="1.7" stroke-linecap="round" stroke-linejoin="round"/><path d="M 305.5 329 L 310.5 329" fill="none" stroke="#14161a" stroke-width="1.7" stroke-linecap="round" stroke-linejoin="round"/><path d="M 564 486 L 564 497" fill="none" stroke="#14161a" stroke-width="1.7" stroke-linecap="round" stroke-linejoin="round"/><path d="M 554 497 L 574 497" fill="none" stroke="#14161a" stroke-width="1.7" stroke-linecap="round" stroke-linejoin="round"/><path d="M 558 501 L 570 501" fill="none" stroke="#14161a" stroke-width="1.7" stroke-linecap="round" stroke-linejoin="round"/><path d="M 561.5 505 L 566.5 505" fill="none" stroke="#14161a" stroke-width="1.7" stroke-linecap="round" stroke-linejoin="round"/><circle cx="138" cy="134" r="17" fill="none" stroke="#f4f2eb" stroke-width="6.7"/><path d="M 126 134 L 134 134 M 130 130 L 130 138" fill="none" stroke="#f4f2eb" stroke-width="6.7" stroke-linecap="round" stroke-linejoin="round"/><path d="M 142 134 L 150 134" fill="none" stroke="#f4f2eb" stroke-width="6.7" stroke-linecap="round" stroke-linejoin="round"/><path d="M 136 222 L 141 213 L 149 231 L 157 213 L 165 231 L 173 213 L 179 231 L 184 222" fill="none" stroke="#f4f2eb" stroke-width="6.7" stroke-linecap="round" stroke-linejoin="round"/><path d="M 242 310 L 247 301 L 255 319 L 263 301 L 271 319 L 279 301 L 285 319 L 290 310" fill="none" stroke="#f4f2eb" stroke-width="6.7" stroke-linecap="round" stroke-linejoin="round"/><path d="M 200 398 L 205 389 L 213 407 L 221 389 L 229 407 L 237 389 L 243 407 L 248 398" fill="none" stroke="#f4f2eb" stroke-width="6.7" stroke-linecap="round" stroke-linejoin="round"/><path d="M 498 486 L 503 477 L 511 495 L 519 477 L 527 495 L 535 477 L 541 495 L 546 486" fill="none" stroke="#f4f2eb" stroke-width="6.7" stroke-linecap="round" stroke-linejoin="round"/><path d="M 362 599 L 379 599" fill="none" stroke="#f4f2eb" stroke-width="6.7" stroke-linecap="round" stroke-linejoin="round"/><path d="M 379 584 L 379 614" fill="none" stroke="#f4f2eb" stroke-width="6.7" stroke-linecap="round" stroke-linejoin="round"/><path d="M 379 593 L 396 577 L 396 567" fill="none" stroke="#f4f2eb" stroke-width="6.7" stroke-linecap="round" stroke-linejoin="round"/><path d="M 379 605 L 396 621 L 396 631" fill="none" stroke="#f4f2eb" stroke-width="6.7" stroke-linecap="round" stroke-linejoin="round"/><path d="M 390.5 616 l -1 -8.5 l 7.5 5 Z" fill="none" stroke="#f4f2eb" stroke-width="6.7" stroke-linecap="round" stroke-linejoin="round"/><path d="M 411 699 L 411 725" fill="none" stroke="#f4f2eb" stroke-width="6.7" stroke-linecap="round" stroke-linejoin="round"/><path d="M 421 699 L 421 725" fill="none" stroke="#f4f2eb" stroke-width="6.7" stroke-linecap="round" stroke-linejoin="round"/><circle cx="608" cy="702" r="3" fill="none" stroke="#f4f2eb" stroke-width="6.7"/><circle cx="138" cy="134" r="17" fill="none" stroke="#14161a" stroke-width="1.7"/><path d="M 126 134 L 134 134 M 130 130 L 130 138" fill="none" stroke="#14161a" stroke-width="1.7" stroke-linecap="round" stroke-linejoin="round"/><path d="M 142 134 L 150 134" fill="none" stroke="#14161a" stroke-width="1.7" stroke-linecap="round" stroke-linejoin="round"/><path d="M 136 222 L 141 213 L 149 231 L 157 213 L 165 231 L 173 213 L 179 231 L 184 222" fill="none" stroke="#14161a" stroke-width="1.7" stroke-linecap="round" stroke-linejoin="round"/><path d="M 242 310 L 247 301 L 255 319 L 263 301 L 271 319 L 279 301 L 285 319 L 290 310" fill="none" stroke="#14161a" stroke-width="1.7" stroke-linecap="round" stroke-linejoin="round"/><path d="M 200 398 L 205 389 L 213 407 L 221 389 L 229 407 L 237 389 L 243 407 L 248 398" fill="none" stroke="#14161a" stroke-width="1.7" stroke-linecap="round" stroke-linejoin="round"/><path d="M 498 486 L 503 477 L 511 495 L 519 477 L 527 495 L 535 477 L 541 495 L 546 486" fill="none" stroke="#14161a" stroke-width="1.7" stroke-linecap="round" stroke-linejoin="round"/><path d="M 362 599 L 379 599" fill="none" stroke="#14161a" stroke-width="1.7" stroke-linecap="round" stroke-linejoin="round"/><path d="M 379 584 L 379 614" fill="none" stroke="#14161a" stroke-width="1.7" stroke-linecap="round" stroke-linejoin="round"/><path d="M 379 593 L 396 577 L 396 567" fill="none" stroke="#14161a" stroke-width="1.7" stroke-linecap="round" stroke-linejoin="round"/><path d="M 379 605 L 396 621 L 396 631" fill="none" stroke="#14161a" stroke-width="1.7" stroke-linecap="round" stroke-linejoin="round"/><path d="M 390.5 616 l -1 -8.5 l 7.5 5 Z" fill="#14161a"/><path d="M 411 699 L 411 725" fill="none" stroke="#14161a" stroke-width="1.7" stroke-linecap="round" stroke-linejoin="round"/><path d="M 421 699 L 421 725" fill="none" stroke="#14161a" stroke-width="1.7" stroke-linecap="round" stroke-linejoin="round"/><circle cx="608" cy="702" r="3" fill="none" stroke="#14161a" stroke-width="1.7"/><text x="138" y="108" text-anchor="middle" font-family="ui-monospace, SFMono-Regular, Menlo, Consolas, monospace" font-size="12" stroke="#f4f2eb" stroke-width="3" paint-order="stroke" stroke-linejoin="round" font-weight="600" fill="#14161a">VCC</text><text x="138" y="170" text-anchor="middle" font-family="ui-monospace, SFMono-Regular, Menlo, Consolas, monospace" font-size="11" stroke="#f4f2eb" stroke-width="3" paint-order="stroke" stroke-linejoin="round" fill="#8d8877">DC 12</text><text x="160" y="204" text-anchor="middle" font-family="ui-monospace, SFMono-Regular, Menlo, Consolas, monospace" font-size="12" stroke="#f4f2eb" stroke-width="3" paint-order="stroke" stroke-linejoin="round" font-weight="600" fill="#14161a">R1</text><text x="160" y="250" text-anchor="middle" font-family="ui-monospace, SFMono-Regular, Menlo, Consolas, monospace" font-size="11" stroke="#f4f2eb" stroke-width="3" paint-order="stroke" stroke-linejoin="round" fill="#8d8877">100k</text><text x="266" y="292" text-anchor="middle" font-family="ui-monospace, SFMono-Regular, Menlo, Consolas, monospace" font-size="12" stroke="#f4f2eb" stroke-width="3" paint-order="stroke" stroke-linejoin="round" font-weight="600" fill="#14161a">R2</text><text x="266" y="338" text-anchor="middle" font-family="ui-monospace, SFMono-Regular, Menlo, Consolas, monospace" font-size="11" stroke="#f4f2eb" stroke-width="3" paint-order="stroke" stroke-linejoin="round" fill="#8d8877">22k</text><text x="224" y="380" text-anchor="middle" font-family="ui-monospace, SFMono-Regular, Menlo, Consolas, monospace" font-size="12" stroke="#f4f2eb" stroke-width="3" paint-order="stroke" stroke-linejoin="round" font-weight="600" fill="#14161a">RC</text><text x="224" y="426" text-anchor="middle" font-family="ui-monospace, SFMono-Regular, Menlo, Consolas, monospace" font-size="11" stroke="#f4f2eb" stroke-width="3" paint-order="stroke" stroke-linejoin="round" fill="#8d8877">4.7k</text><text x="522" y="468" text-anchor="middle" font-family="ui-monospace, SFMono-Regular, Menlo, Consolas, monospace" font-size="12" stroke="#f4f2eb" stroke-width="3" paint-order="stroke" stroke-linejoin="round" font-weight="600" fill="#14161a">RE</text><text x="522" y="514" text-anchor="middle" font-family="ui-monospace, SFMono-Regular, Menlo, Consolas, monospace" font-size="11" stroke="#f4f2eb" stroke-width="3" paint-order="stroke" stroke-linejoin="round" fill="#8d8877">1k</text><text x="408" y="595" text-anchor="start" font-family="ui-monospace, SFMono-Regular, Menlo, Consolas, monospace" font-size="12" stroke="#f4f2eb" stroke-width="3" paint-order="stroke" stroke-linejoin="round" font-weight="600" fill="#14161a">Q1</text><text x="408" y="609" text-anchor="start" font-family="ui-monospace, SFMono-Regular, Menlo, Consolas, monospace" font-size="11" stroke="#f4f2eb" stroke-width="3" paint-order="stroke" stroke-linejoin="round" fill="#8d8877">2N3904</text><text x="416" y="694" text-anchor="middle" font-family="ui-monospace, SFMono-Regular, Menlo, Consolas, monospace" font-size="12" stroke="#f4f2eb" stroke-width="3" paint-order="stroke" stroke-linejoin="round" font-weight="600" fill="#14161a">C1</text><text x="416" y="740" text-anchor="middle" font-family="ui-monospace, SFMono-Regular, Menlo, Consolas, monospace" font-size="11" stroke="#f4f2eb" stroke-width="3" paint-order="stroke" stroke-linejoin="round" fill="#8d8877">10u</text><text x="96" y="116" text-anchor="middle" font-family="ui-monospace, SFMono-Regular, Menlo, Consolas, monospace" font-size="11" stroke="#f4f2eb" stroke-width="3" paint-order="stroke" stroke-linejoin="round" letter-spacing="0.08em" fill="#8d8877">VCC</text><text x="224" y="204" text-anchor="middle" font-family="ui-monospace, SFMono-Regular, Menlo, Consolas, monospace" font-size="11" stroke="#f4f2eb" stroke-width="3" paint-order="stroke" stroke-linejoin="round" letter-spacing="0.08em" fill="#8d8877">B</text><text x="352" y="380" text-anchor="middle" font-family="ui-monospace, SFMono-Regular, Menlo, Consolas, monospace" font-size="11" stroke="#f4f2eb" stroke-width="3" paint-order="stroke" stroke-linejoin="round" letter-spacing="0.08em" fill="#8d8877">C</text><text x="480" y="468" text-anchor="middle" font-family="ui-monospace, SFMono-Regular, Menlo, Consolas, monospace" font-size="11" stroke="#f4f2eb" stroke-width="3" paint-order="stroke" stroke-linejoin="round" letter-spacing="0.08em" fill="#8d8877">E</text><text x="608" y="694" text-anchor="middle" font-family="ui-monospace, SFMono-Regular, Menlo, Consolas, monospace" font-size="11" stroke="#f4f2eb" stroke-width="3" paint-order="stroke" stroke-linejoin="round" letter-spacing="0.08em" fill="#8d8877">IN</text><text x="28" y="806" text-anchor="start" font-family="ui-monospace, SFMono-Regular, Menlo, Consolas, monospace" font-size="12" stroke="#f4f2eb" stroke-width="3" paint-order="stroke" stroke-linejoin="round" letter-spacing="0.1em" fill="#8d8877">COMMON EMITTER AMPLIFIER</text></svg>