<svg xmlns="http://www.w3.org/2000/svg" width="1138" height="1310" viewBox="0 0 1138 1310"><rect width="1138" height="1310" fill="#f4f2eb"/><path d="M 96 134 L 96 496" fill="none" stroke="#14161a" stroke-width="1.7" stroke-linecap="round" stroke-linejoin="round"/><path d="M 352 464 L 352 574" fill="none" stroke="#14161a" stroke-width="1.7" stroke-linecap="round" stroke-linejoin="round"/><path d="M 608 750 L 608 838" fill="none" stroke="#14161a" stroke-width="1.7" stroke-linecap="round" stroke-linejoin="round"/><path d="M 736 926 L 736 1014" fill="none" stroke="#14161a" stroke-width="1.7" stroke-linecap="round" stroke-linejoin="round"/><path d="M 864 1102 L 864 1190" fill="none" stroke="#14161a" stroke-width="1.7" stroke-linecap="round" stroke-linejoin="round"/><path d="M 96 134 L 121 134" fill="none" stroke="#14161a" stroke-width="1.7" stroke-linecap="round" stroke-linejoin="round"/><path d="M 155 134 L 180 134" fill="none" stroke="#14161a" stroke-width="1.7" stroke-linecap="round" stroke-linejoin="round"/><path d="M 96 222 L 114 222" fill="none" stroke="#14161a" stroke-width="1.7" stroke-linecap="round" stroke-linejoin="round"/><path d="M 162 222 L 180 222" fill="none" stroke="#14161a" stroke-width="1.7" stroke-linecap="round" stroke-linejoin="round"/><path d="M 224 332 L 250 332" fill="none" stroke="#14161a" stroke-width="1.7" stroke-linecap="round" stroke-linejoin="round"/><path d="M 282 332 L 308 332" fill="none" stroke="#14161a" stroke-width="1.7" stroke-linecap="round" stroke-linejoin="round"/><path d="M 260 346 L 260 364 L 96 364" fill="none" stroke="#14161a" stroke-width="1.7" stroke-linecap="round" stroke-linejoin="round" stroke-dasharray="5 4"/><path d="M 272 346 L 272 376" fill="none" stroke="#14161a" stroke-width="1.7" stroke-linecap="round" stroke-linejoin="round" stroke-dasharray="5 4"/><path d="M 352 464 L 378 464" fill="none" stroke="#14161a" stroke-width="1.7" stroke-linecap="round" stroke-linejoin="round"/><path d="M 410 464 L 436 464" fill="none" stroke="#14161a" stroke-width="1.7" stroke-linecap="round" stroke-linejoin="round"/><path d="M 388 478 L 388 496 L 96 496" fill="none" stroke="#14161a" stroke-width="1.7" stroke-linecap="round" stroke-linejoin="round" stroke-dasharray="5 4"/><path d="M 400 478 L 400 508" fill="none" stroke="#14161a" stroke-width="1.7" stroke-linecap="round" stroke-linejoin="round" stroke-dasharray="5 4"/><path d="M 352 574 L 370 574" fill="none" stroke="#14161a" stroke-width="1.7" stroke-linecap="round" stroke-linejoin="round"/><path d="M 418 574 L 436 574" fill="none" stroke="#14161a" stroke-width="1.7" stroke-linecap="round" stroke-linejoin="round"/><path d="M 480 662 L 505 662" fill="none" stroke="#14161a" stroke-width="1.7" stroke-linecap="round" stroke-linejoin="round"/><path d="M 539 662 L 564 662" fill="none" stroke="#14161a" stroke-width="1.7" stroke-linecap="round" stroke-linejoin="round"/><path d="M 608 750 L 634 750" fill="none" stroke="#14161a" stroke-width="1.7" stroke-linecap="round" stroke-linejoin="round"/><path d="M 666 750 L 692 750" fill="none" stroke="#14161a" stroke-width="1.7" stroke-linecap="round" stroke-linejoin="round"/><path d="M 608 838 L 626 838" fill="none" stroke="#14161a" stroke-width="1.7" stroke-linecap="round" stroke-linejoin="round"/><path d="M 674 838 L 692 838" fill="none" stroke="#14161a" stroke-width="1.7" stroke-linecap="round" stroke-linejoin="round"/><path d="M 736 926 L 762 926" fill="none" stroke="#14161a" stroke-width="1.7" stroke-linecap="round" stroke-linejoin="round"/><path d="M 794 926 L 820 926" fill="none" stroke="#14161a" stroke-width="1.7" stroke-linecap="round" stroke-linejoin="round"/><path d="M 736 1014 L 754 1014" fill="none" stroke="#14161a" stroke-width="1.7" stroke-linecap="round" stroke-linejoin="round"/><path d="M 802 1014 L 820 1014" fill="none" stroke="#14161a" stroke-width="1.7" stroke-linecap="round" stroke-linejoin="round"/><path d="M 864 1102 L 890 1102" fill="none" stroke="#14161a" stroke-width="1.7" stroke-linecap="round" stroke-linejoin="round"/><path d="M 922 1102 L 948 1102" fill="none" stroke="#14161a" stroke-width="1.7" stroke-linecap="round" stroke-linejoin="round"/><path d="M 864 1190 L 882 1190" fill="none" stroke="#14161a" stroke-width="1.7" stroke-linecap="round" stroke-linejoin="round"/><path d="M 930 1190 L 948 1190" fill="none" stroke="#14161a" stroke-width="1.7" stroke-linecap="round" stroke-linejoin="round"/><circle cx="96" cy="222" r="3.2" fill="#14161a"/><circle cx="96" cy="364" r="3.2" fill="#14161a"/><path d="M 180 134 L 180 145" fill="none" stroke="#14161a" stroke-width="1.7" stroke-linecap="round" stroke-linejoin="round"/><path d="M 170 145 L 190 145" fill="none" stroke="#14161a" stroke-width="1.7" stroke-linecap="round" stroke-linejoin="round"/><path d="M 174 149 L 186 149" fill="none" stroke="#14161a" stroke-width="1.7" stroke-linecap="round" stroke-linejoin="round"/><path d="M 177.5 153 L 182.5 153" fill="none" stroke="#14161a" stroke-width="1.7" stroke-linecap="round" stroke-linejoin="round"/><path d="M 180 222 L 180 233" fill="none" stroke="#14161a" stroke-width="1.7" stroke-linecap="round" stroke-linejoin="round"/><path d="M 170 233 L 190 233" fill="none" stroke="#14161a" stroke-width="1.7" stroke-linecap="round" stroke-linejoin="round"/><path d="M 174 237 L 186 237" fill="none" stroke="#14161a" stroke-width="1.7" stroke-linecap="round" stroke-linejoin="round"/><path d="M 177.5 241 L 182.5 241" fill="none" stroke="#14161a" stroke-width="1.7" stroke-linecap="round" stroke-linejoin="round"/><path d="M 308 332 L 308 343" fill="none" stroke="#14161a" stroke-width="1.7" stroke-linecap="round" stroke-linejoin="round"/><path d="M 298 343 L 318 343" fill="none" stroke="#14161a" stroke-width="1.7" stroke-linecap="round" stroke-linejoin="round"/><path d="M 302 347 L 314 347" fill="none" stroke="#14161a" stroke-width="1.7" stroke-linecap="round" stroke-linejoin="round"/><path d="M 305.5 351 L 310.5 351" fill="none" stroke="#14161a" stroke-width="1.7" stroke-linecap="round" stroke-linejoin="round"/><path d="M 272 376 L 272 387" fill="none" stroke="#14161a" stroke-width="1.7" stroke-linecap="round" stroke-linejoin="round"/><path d="M 262 387 L 282 387" fill="none" stroke="#14161a" stroke-width="1.7" stroke-linecap="round" stroke-linejoin="round"/><path d="M 266 391 L 278 391" fill="none" stroke="#14161a" stroke-width="1.7" stroke-linecap="round" stroke-linejoin="round"/><path d="M 269.5 395 L 274.5 395" fill="none" stroke="#14161a" stroke-width="1.7" stroke-linecap="round" stroke-linejoin="round"/><path d="M 436 464 L 436 475" fill="none" stroke="#14161a" stroke-width="1.7" stroke-linecap="round" stroke-linejoin="round"/><path d="M 426 475 L 446 475" fill="none" stroke="#14161a" stroke-width="1.7" stroke-linecap="round" stroke-linejoin="round"/><path d="M 430 479 L 442 479" fill="none" stroke="#14161a" stroke-width="1.7" stroke-linecap="round" stroke-linejoin="round"/><path d="M 433.5 483 L 438.5 483" fill="none" stroke="#14161a" stroke-width="1.7" stroke-linecap="round" stroke-linejoin="round"/><path d="M 400 508 L 400 519" fill="none" stroke="#14161a" stroke-width="1.7" stroke-linecap="round" stroke-linejoin="round"/><path d="M 390 519 L 410 519" fill="none" stroke="#14161a" stroke-width="1.7" stroke-linecap="round" stroke-linejoin="round"/><path d="M 394 523 L 406 523" fill="none" stroke="#14161a" stroke-width="1.7" stroke-linecap="round" stroke-linejoin="round"/><path d="M 397.5 527 L 402.5 527" fill="none" stroke="#14161a" stroke-width="1.7" stroke-linecap="round" stroke-linejoin="round"/><path d="M 436 574 L 436 585" fill="none" stroke="#14161a" stroke-width="1.7" stroke-linecap="round" stroke-linejoin="round"/><path d="M 426 585 L 446 585" fill="none" stroke="#14161a" stroke-width="1.7" stroke-linecap="round" stroke-linejoin="round"/><path d="M 430 589 L 442 589" fill="none" stroke="#14161a" stroke-width="1.7" stroke-linecap="round" stroke-linejoin="round"/><path d="M 433.5 593 L 438.5 593" fill="none" stroke="#14161a" stroke-width="1.7" stroke-linecap="round" stroke-linejoin="round"/><path d="M 564 662 L 564 673" fill="none" stroke="#14161a" stroke-width="1.7" stroke-linecap="round" stroke-linejoin="round"/><path d="M 554 673 L 574 673" fill="none" stroke="#14161a" stroke-width="1.7" stroke-linecap="round" stroke-linejoin="round"/><path d="M 558 677 L 570 677" fill="none" stroke="#14161a" stroke-width="1.7" stroke-linecap="round" stroke-linejoin="round"/><path d="M 561.5 681 L 566.5 681" fill="none" stroke="#14161a" stroke-width="1.7" stroke-linecap="round" stroke-linejoin="round"/><path d="M 692 750 L 692 761" fill="none" stroke="#14161a" stroke-width="1.7" stroke-linecap="round" stroke-linejoin="round"/><path d="M 682 761 L 702 761" fill="none" stroke="#14161a" stroke-width="1.7" stroke-linecap="round" stroke-linejoin="round"/><path d="M 686 765 L 698 765" fill="none" stroke="#14161a" stroke-width="1.7" stroke-linecap="round" stroke-linejoin="round"/><path d="M 689.5 769 L 694.5 769" fill="none" stroke="#14161a" stroke-width="1.7" stroke-linecap="round" stroke-linejoin="round"/><path d="M 692 838 L 692 849" fill="none" stroke="#14161a" stroke-width="1.7" stroke-linecap="round" stroke-linejoin="round"/><path d="M 682 849 L 702 849" fill="none" stroke="#14161a" stroke-width="1.7" stroke-linecap="round" stroke-linejoin="round"/><path d="M 686 853 L 698 853" fill="none" stroke="#14161a" stroke-width="1.7" stroke-linecap="round" stroke-linejoin="round"/><path d="M 689.5 857 L 694.5 857" fill="none" stroke="#14161a" stroke-width="1.7" stroke-linecap="round" stroke-linejoin="round"/><path d="M 820 926 L 820 937" fill="none" stroke="#14161a" stroke-width="1.7" stroke-linecap="round" stroke-linejoin="round"/><path d="M 810 937 L 830 937" fill="none" stroke="#14161a" stroke-width="1.7" stroke-linecap="round" stroke-linejoin="round"/><path d="M 814 941 L 826 941" fill="none" stroke="#14161a" stroke-width="1.7" stroke-linecap="round" stroke-linejoin="round"/><path d="M 817.5 945 L 822.5 945" fill="none" stroke="#14161a" stroke-width="1.7" stroke-linecap="round" stroke-linejoin="round"/><path d="M 820 1014 L 820 1025" fill="none" stroke="#14161a" stroke-width="1.7" stroke-linecap="round" stroke-linejoin="round"/><path d="M 810 1025 L 830 1025" fill="none" stroke="#14161a" stroke-width="1.7" stroke-linecap="round" stroke-linejoin="round"/><path d="M 814 1029 L 826 1029" fill="none" stroke="#14161a" stroke-width="1.7" stroke-linecap="round" stroke-linejoin="round"/><path d="M 817.5 1033 L 822.5 1033" fill="none" stroke="#14161a" stroke-width="1.7" stroke-linecap="round" stroke-linejoin="round"/><path d="M 948 1102 L 948 1113" fill="none" stroke="#14161a" stroke-width="1.7" stroke-linecap="round" stroke-linejoin="round"/><path d="M 938 1113 L 958 1113" fill="none" stroke="#14161a" stroke-width="1.7" stroke-linecap="round" stroke-linejoin="round"/><path d="M 942 1117 L 954 1117" fill="none" stroke="#14161a" stroke-width="1.7" stroke-linecap="round" stroke-linejoin="round"/><path d="M 945.5 1121 L 950.5 1121" fill="none" stroke="#14161a" stroke-width="1.7" stroke-linecap="round" stroke-linejoin="round"/><path d="M 948 1190 L 948 1201" fill="none" stroke="#14161a" stroke-width="1.7" stroke-linecap="round" stroke-linejoin="round"/><path d="M 938 1201 L 958 1201" fill="none" stroke="#14161a" stroke-width="1.7" stroke-linecap="round" stroke-linejoin="round"/><path d="M 942 1205 L 954 1205" fill="none" stroke="#14161a" stroke-width="1.7" stroke-linecap="round" stroke-linejoin="round"/><path d="M 945.5 1209 L 950.5 1209" fill="none" stroke="#14161a" stroke-width="1.7" stroke-linecap="round" stroke-linejoin="round"/><circle cx="138" cy="134" r="17" fill="none" stroke="#14161a" stroke-width="1.7"/><path d="M 126 134 L 134 134 M 130 130 L 130 138" fill="none" stroke="#14161a" stroke-width="1.7" stroke-linecap="round" stroke-linejoin="round"/><path d="M 142 134 L 150 134" fill="none" stroke="#14161a" stroke-width="1.7" stroke-linecap="round" stroke-linejoin="round"/><path d="M 114 222 L 119 213 L 127 231 L 135 213 L 143 231 L 151 213 L 157 231 L 162 222" fill="none" stroke="#14161a" stroke-width="1.7" stroke-linecap="round" stroke-linejoin="round"/><path d="M 250 332 L 266 319 L 282 332 L 266 345 Z" fill="none" stroke="#14161a" stroke-width="1.7" stroke-linecap="round" stroke-linejoin="round"/><path d="M 257 332 L 263 332 M 260 329 L 260 335" fill="none" stroke="#14161a" stroke-width="1.7" stroke-linecap="round" stroke-linejoin="round"/><path d="M 269 332 L 275 332" fill="none" stroke="#14161a" stroke-width="1.7" stroke-linecap="round" stroke-linejoin="round"/><path d="M 388 464 l -5 -3.5 l 0 7 Z" fill="#14161a"/><path d="M 378 464 L 394 451 L 410 464 L 394 477 Z" fill="none" stroke="#14161a" stroke-width="1.7" stroke-linecap="round" stroke-linejoin="round"/><path d="M 400 464 L 388 464" fill="none" stroke="#14161a" stroke-width="1.7" stroke-linecap="round" stroke-linejoin="round"/><path d="M 370 574 L 375 565 L 383 583 L 391 565 L 399 583 L 407 565 L 413 583 L 418 574" fill="none" stroke="#14161a" stroke-width="1.7" stroke-linecap="round" stroke-linejoin="round"/><circle cx="522" cy="662" r="17" fill="none" stroke="#14161a" stroke-width="1.7"/><path d="M 510 662 L 518 662 M 514 658 L 514 666" fill="none" stroke="#14161a" stroke-width="1.7" stroke-linecap="round" stroke-linejoin="round"/><path d="M 526 662 L 534 662" fill="none" stroke="#14161a" stroke-width="1.7" stroke-linecap="round" stroke-linejoin="round"/><path d="M 644 750 l -5 -3.5 l 0 7 Z" fill="#14161a"/><path d="M 634 750 L 650 737 L 666 750 L 650 763 Z" fill="none" stroke="#14161a" stroke-width="1.7" stroke-linecap="round" stroke-linejoin="round"/><path d="M 656 750 L 644 750" fill="none" stroke="#14161a" stroke-width="1.7" stroke-linecap="round" stroke-linejoin="round"/><path d="M 626 838 L 631 829 L 639 847 L 647 829 L 655 847 L 663 829 L 669 847 L 674 838" fill="none" stroke="#14161a" stroke-width="1.7" stroke-linecap="round" stroke-linejoin="round"/><path d="M 762 926 L 778 913 L 794 926 L 778 939 Z" fill="none" stroke="#14161a" stroke-width="1.7" stroke-linecap="round" stroke-linejoin="round"/><path d="M 769 926 L 775 926 M 772 923 L 772 929" fill="none" stroke="#14161a" stroke-width="1.7" stroke-linecap="round" stroke-linejoin="round"/><path d="M 781 926 L 787 926" fill="none" stroke="#14161a" stroke-width="1.7" stroke-linecap="round" stroke-linejoin="round"/><path d="M 754 1014 L 759 1005 L 767 1023 L 775 1005 L 783 1023 L 791 1005 L 797 1023 L 802 1014" fill="none" stroke="#14161a" stroke-width="1.7" stroke-linecap="round" stroke-linejoin="round"/><path d="M 890 1102 L 906 1089 L 922 1102 L 906 1115 Z" fill="none" stroke="#14161a" stroke-width="1.7" stroke-linecap="round" stroke-linejoin="round"/><path d="M 897 1102 L 903 1102 M 900 1099 L 900 1105" fill="none" stroke="#14161a" stroke-width="1.7" stroke-linecap="round" stroke-linejoin="round"/><path d="M 909 1102 L 915 1102" fill="none" stroke="#14161a" stroke-width="1.7" stroke-linecap="round" stroke-linejoin="round"/><path d="M 882 1190 L 887 1181 L 895 1199 L 903 1181 L 911 1199 L 919 1181 L 925 1199 L 930 1190" fill="none" stroke="#14161a" stroke-width="1.7" stroke-linecap="round" stroke-linejoin="round"/><circle cx="224" cy="322" r="3" fill="none" stroke="#14161a" stroke-width="1.7"/><circle cx="480" cy="652" r="3" fill="none" stroke="#14161a" stroke-width="1.7"/><text x="138" y="108" text-anchor="middle" font-family="ui-monospace, SFMono-Regular, Menlo, Consolas, monospace" font-size="12" stroke="#f4f2eb" stroke-width="3" paint-order="stroke" stroke-linejoin="round" font-weight="600" fill="#14161a">VIN</text><text x="138" y="170" text-anchor="middle" font-family="ui-monospace, SFMono-Regular, Menlo, Consolas, monospace" font-size="11" stroke="#f4f2eb" stroke-width="3" paint-order="stroke" stroke-linejoin="round" fill="#8d8877">AC 1</text><text x="138" y="204" text-anchor="middle" font-family="ui-monospace, SFMono-Regular, Menlo, Consolas, monospace" font-size="12" stroke="#f4f2eb" stroke-width="3" paint-order="stroke" stroke-linejoin="round" font-weight="600" fill="#14161a">RIN</text><text x="138" y="250" text-anchor="middle" font-family="ui-monospace, SFMono-Regular, Menlo, Consolas, monospace" font-size="11" stroke="#f4f2eb" stroke-width="3" paint-order="stroke" stroke-linejoin="round" fill="#8d8877">1meg</text><text x="266" y="314" text-anchor="middle" font-family="ui-monospace, SFMono-Regular, Menlo, Consolas, monospace" font-size="12" stroke="#f4f2eb" stroke-width="3" paint-order="stroke" stroke-linejoin="round" font-weight="600" fill="#14161a">E1</text><text x="288" y="336" text-anchor="start" font-family="ui-monospace, SFMono-Regular, Menlo, Consolas, monospace" font-size="11" stroke="#f4f2eb" stroke-width="3" paint-order="stroke" stroke-linejoin="round" fill="#8d8877">10</text><text x="394" y="446" text-anchor="middle" font-family="ui-monospace, SFMono-Regular, Menlo, Consolas, monospace" font-size="12" stroke="#f4f2eb" stroke-width="3" paint-order="stroke" stroke-linejoin="round" font-weight="600" fill="#14161a">G1</text><text x="416" y="468" text-anchor="start" font-family="ui-monospace, SFMono-Regular, Menlo, Consolas, monospace" font-size="11" stroke="#f4f2eb" stroke-width="3" paint-order="stroke" stroke-linejoin="round" fill="#8d8877">1m</text><text x="394" y="556" text-anchor="middle" font-family="ui-monospace, SFMono-Regular, Menlo, Consolas, monospace" font-size="12" stroke="#f4f2eb" stroke-width="3" paint-order="stroke" stroke-linejoin="round" font-weight="600" fill="#14161a">RG</text><text x="394" y="602" text-anchor="middle" font-family="ui-monospace, SFMono-Regular, Menlo, Consolas, monospace" font-size="11" stroke="#f4f2eb" stroke-width="3" paint-order="stroke" stroke-linejoin="round" fill="#8d8877">1k</text><text x="522" y="636" text-anchor="middle" font-family="ui-monospace, SFMono-Regular, Menlo, Consolas, monospace" font-size="12" stroke="#f4f2eb" stroke-width="3" paint-order="stroke" stroke-linejoin="round" font-weight="600" fill="#14161a">VS</text><text x="522" y="698" text-anchor="middle" font-family="ui-monospace, SFMono-Regular, Menlo, Consolas, monospace" font-size="11" stroke="#f4f2eb" stroke-width="3" paint-order="stroke" stroke-linejoin="round" fill="#8d8877">DC 0</text><text x="650" y="732" text-anchor="middle" font-family="ui-monospace, SFMono-Regular, Menlo, Consolas, monospace" font-size="12" stroke="#f4f2eb" stroke-width="3" paint-order="stroke" stroke-linejoin="round" font-weight="600" fill="#14161a">F1</text><text x="650" y="778" text-anchor="middle" font-family="ui-monospace, SFMono-Regular, Menlo, Consolas, monospace" font-size="11" stroke="#f4f2eb" stroke-width="3" paint-order="stroke" stroke-linejoin="round" fill="#8d8877">VS × 2</text><text x="650" y="820" text-anchor="middle" font-family="ui-monospace, SFMono-Regular, Menlo, Consolas, monospace" font-size="12" stroke="#f4f2eb" stroke-width="3" paint-order="stroke" stroke-linejoin="round" font-weight="600" fill="#14161a">RF</text><text x="650" y="866" text-anchor="middle" font-family="ui-monospace, SFMono-Regular, Menlo, Consolas, monospace" font-size="11" stroke="#f4f2eb" stroke-width="3" paint-order="stroke" stroke-linejoin="round" fill="#8d8877">1k</text><text x="778" y="908" text-anchor="middle" font-family="ui-monospace, SFMono-Regular, Menlo, Consolas, monospace" font-size="12" stroke="#f4f2eb" stroke-width="3" paint-order="stroke" stroke-linejoin="round" font-weight="600" fill="#14161a">H1</text><text x="778" y="954" text-anchor="middle" font-family="ui-monospace, SFMono-Regular, Menlo, Consolas, monospace" font-size="11" stroke="#f4f2eb" stroke-width="3" paint-order="stroke" stroke-linejoin="round" fill="#8d8877">VS × 100</text><text x="778" y="996" text-anchor="middle" font-family="ui-monospace, SFMono-Regular, Menlo, Consolas, monospace" font-size="12" stroke="#f4f2eb" stroke-width="3" paint-order="stroke" stroke-linejoin="round" font-weight="600" fill="#14161a">RH</text><text x="778" y="1042" text-anchor="middle" font-family="ui-monospace, SFMono-Regular, Menlo, Consolas, monospace" font-size="11" stroke="#f4f2eb" stroke-width="3" paint-order="stroke" stroke-linejoin="round" fill="#8d8877">1k</text><text x="906" y="1084" text-anchor="middle" font-family="ui-monospace, SFMono-Regular, Menlo, Consolas, monospace" font-size="12" stroke="#f4f2eb" stroke-width="3" paint-order="stroke" stroke-linejoin="round" font-weight="600" fill="#14161a">B1</text><text x="906" y="1130" text-anchor="middle" font-family="ui-monospace, SFMono-Regular, Menlo, Consolas, monospace" font-size="11" stroke="#f4f2eb" stroke-width="3" paint-order="stroke" stroke-linejoin="round" fill="#8d8877">V=V(in)*V(in)</text><text x="906" y="1172" text-anchor="middle" font-family="ui-monospace, SFMono-Regular, Menlo, Consolas, monospace" font-size="12" stroke="#f4f2eb" stroke-width="3" paint-order="stroke" stroke-linejoin="round" font-weight="600" fill="#14161a">RB</text><text x="906" y="1218" text-anchor="middle" font-family="ui-monospace, SFMono-Regular, Menlo, Consolas, monospace" font-size="11" stroke="#f4f2eb" stroke-width="3" paint-order="stroke" stroke-linejoin="round" fill="#8d8877">1k</text><text x="96" y="116" text-anchor="middle" font-family="ui-monospace, SFMono-Regular, Menlo, Consolas, monospace" font-size="11" stroke="#f4f2eb" stroke-width="3" paint-order="stroke" stroke-linejoin="round" letter-spacing="0.08em" fill="#8d8877">IN</text><text x="224" y="314" text-anchor="middle" font-family="ui-monospace, SFMono-Regular, Menlo, Consolas, monospace" font-size="11" stroke="#f4f2eb" stroke-width="3" paint-order="stroke" stroke-linejoin="round" letter-spacing="0.08em" fill="#8d8877">E</text><text x="352" y="446" text-anchor="middle" font-family="ui-monospace, SFMono-Regular, Menlo, Consolas, monospace" font-size="11" stroke="#f4f2eb" stroke-width="3" paint-order="stroke" stroke-linejoin="round" letter-spacing="0.08em" fill="#8d8877">G</text><text x="480" y="644" text-anchor="middle" font-family="ui-monospace, SFMono-Regular, Menlo, Consolas, monospace" font-size="11" stroke="#f4f2eb" stroke-width="3" paint-order="stroke" stroke-linejoin="round" letter-spacing="0.08em" fill="#8d8877">S</text><text x="608" y="732" text-anchor="middle" font-family="ui-monospace, SFMono-Regular, Menlo, Consolas, monospace" font-size="11" stroke="#f4f2eb" stroke-width="3" paint-order="stroke" stroke-linejoin="round" letter-spacing="0.08em" fill="#8d8877">F</text><text x="736" y="908" text-anchor="middle" font-family="ui-monospace, SFMono-Regular, Menlo, Consolas, monospace" font-size="11" stroke="#f4f2eb" stroke-width="3" paint-order="stroke" stroke-linejoin="round" letter-spacing="0.08em" fill="#8d8877">H</text><text x="864" y="1084" text-anchor="middle" font-family="ui-monospace, SFMono-Regular, Menlo, Consolas, monospace" font-size="11" stroke="#f4f2eb" stroke-width="3" paint-order="stroke" stroke-linejoin="round" letter-spacing="0.08em" fill="#8d8877">B</text><text x="28" y="1284" text-anchor="start" font-family="ui-monospace, SFMono-Regular, Menlo, Consolas, monospace" font-size="12" stroke="#f4f2eb" stroke-width="3" paint-order="stroke" stroke-linejoin="round" letter-spacing="0.1em" fill="#8d8877">DEPENDENT SOURCES</text></svg>