<svg xmlns="http://www.w3.org/2000/svg" width="498" height="564" viewBox="0 0 498 564"><rect width="498" height="564" fill="#f4f2eb"/><path d="M 96 134 L 96 222" fill="none" stroke="#14161a" stroke-width="1.7" stroke-linecap="round" stroke-linejoin="round"/><path d="M 224 310 L 224 444" fill="none" stroke="#14161a" stroke-width="1.7" stroke-linecap="round" stroke-linejoin="round"/><path d="M 96 134 L 121 134" fill="none" stroke="#14161a" stroke-width="1.7" stroke-linecap="round" stroke-linejoin="round"/><path d="M 155 134 L 180 134" fill="none" stroke="#14161a" stroke-width="1.7" stroke-linecap="round" stroke-linejoin="round"/><path d="M 96 222 L 116 222" fill="none" stroke="#14161a" stroke-width="1.7" stroke-linecap="round" stroke-linejoin="round"/><path d="M 160 222 L 180 222" fill="none" stroke="#14161a" stroke-width="1.7" stroke-linecap="round" stroke-linejoin="round"/><path d="M 224 310 L 244 310" fill="none" stroke="#14161a" stroke-width="1.7" stroke-linecap="round" stroke-linejoin="round"/><path d="M 288 310 L 308 310" fill="none" stroke="#14161a" stroke-width="1.7" stroke-linecap="round" stroke-linejoin="round"/><path d="M 224 444 L 242 444" fill="none" stroke="#14161a" stroke-width="1.7" stroke-linecap="round" stroke-linejoin="round"/><path d="M 290 444 L 308 444" fill="none" stroke="#14161a" stroke-width="1.7" stroke-linecap="round" stroke-linejoin="round"/><path d="M 180 134 L 180 145" fill="none" stroke="#14161a" stroke-width="1.7" stroke-linecap="round" stroke-linejoin="round"/><path d="M 170 145 L 190 145" fill="none" stroke="#14161a" stroke-width="1.7" stroke-linecap="round" stroke-linejoin="round"/><path d="M 174 149 L 186 149" fill="none" stroke="#14161a" stroke-width="1.7" stroke-linecap="round" stroke-linejoin="round"/><path d="M 177.5 153 L 182.5 153" fill="none" stroke="#14161a" stroke-width="1.7" stroke-linecap="round" stroke-linejoin="round"/><path d="M 180 222 L 180 233" fill="none" stroke="#14161a" stroke-width="1.7" stroke-linecap="round" stroke-linejoin="round"/><path d="M 170 233 L 190 233" fill="none" stroke="#14161a" stroke-width="1.7" stroke-linecap="round" stroke-linejoin="round"/><path d="M 174 237 L 186 237" fill="none" stroke="#14161a" stroke-width="1.7" stroke-linecap="round" stroke-linejoin="round"/><path d="M 177.5 241 L 182.5 241" fill="none" stroke="#14161a" stroke-width="1.7" stroke-linecap="round" stroke-linejoin="round"/><path d="M 308 310 L 308 321" fill="none" stroke="#14161a" stroke-width="1.7" stroke-linecap="round" stroke-linejoin="round"/><path d="M 298 321 L 318 321" fill="none" stroke="#14161a" stroke-width="1.7" stroke-linecap="round" stroke-linejoin="round"/><path d="M 302 325 L 314 325" fill="none" stroke="#14161a" stroke-width="1.7" stroke-linecap="round" stroke-linejoin="round"/><path d="M 305.5 329 L 310.5 329" fill="none" stroke="#14161a" stroke-width="1.7" stroke-linecap="round" stroke-linejoin="round"/><path d="M 308 444 L 308 455" fill="none" stroke="#14161a" stroke-width="1.7" stroke-linecap="round" stroke-linejoin="round"/><path d="M 298 455 L 318 455" fill="none" stroke="#14161a" stroke-width="1.7" stroke-linecap="round" stroke-linejoin="round"/><path d="M 302 459 L 314 459" fill="none" stroke="#14161a" stroke-width="1.7" stroke-linecap="round" stroke-linejoin="round"/><path d="M 305.5 463 L 310.5 463" fill="none" stroke="#14161a" stroke-width="1.7" stroke-linecap="round" stroke-linejoin="round"/><circle cx="138" cy="134" r="17" fill="none" stroke="#14161a" stroke-width="1.7"/><path d="M 126 134 L 134 134 M 130 130 L 130 138" fill="none" stroke="#14161a" stroke-width="1.7" stroke-linecap="round" stroke-linejoin="round"/><path d="M 142 134 L 150 134" fill="none" stroke="#14161a" stroke-width="1.7" stroke-linecap="round" stroke-linejoin="round"/><path d="M 116 222 a 5.5 5.5 0 0 1 11 0 a 5.5 5.5 0 0 1 11 0 a 5.5 5.5 0 0 1 11 0 a 5.5 5.5 0 0 1 11 0" fill="none" stroke="#14161a" stroke-width="1.7" stroke-linecap="round" stroke-linejoin="round"/><path d="M 244 310 a 5.5 5.5 0 0 1 11 0 a 5.5 5.5 0 0 1 11 0 a 5.5 5.5 0 0 1 11 0 a 5.5 5.5 0 0 1 11 0" fill="none" stroke="#14161a" stroke-width="1.7" stroke-linecap="round" stroke-linejoin="round"/><path d="M 242 444 L 247 435 L 255 453 L 263 435 L 271 453 L 279 435 L 285 453 L 290 444" fill="none" stroke="#14161a" stroke-width="1.7" stroke-linecap="round" stroke-linejoin="round"/><text x="138" y="108" text-anchor="middle" font-family="ui-monospace, SFMono-Regular, Menlo, Consolas, monospace" font-size="12" stroke="#f4f2eb" stroke-width="3" paint-order="stroke" stroke-linejoin="round" font-weight="600" fill="#14161a">V1</text><text x="138" y="170" text-anchor="middle" font-family="ui-monospace, SFMono-Regular, Menlo, Consolas, monospace" font-size="11" stroke="#f4f2eb" stroke-width="3" paint-order="stroke" stroke-linejoin="round" fill="#8d8877">SIN(0 12 50)</text><text x="138" y="204" text-anchor="middle" font-family="ui-monospace, SFMono-Regular, Menlo, Consolas, monospace" font-size="12" stroke="#f4f2eb" stroke-width="3" paint-order="stroke" stroke-linejoin="round" font-weight="600" fill="#14161a">L1</text><text x="138" y="250" text-anchor="middle" font-family="ui-monospace, SFMono-Regular, Menlo, Consolas, monospace" font-size="11" stroke="#f4f2eb" stroke-width="3" paint-order="stroke" stroke-linejoin="round" fill="#8d8877">10m</text><text x="266" y="292" text-anchor="middle" font-family="ui-monospace, SFMono-Regular, Menlo, Consolas, monospace" font-size="12" stroke="#f4f2eb" stroke-width="3" paint-order="stroke" stroke-linejoin="round" font-weight="600" fill="#14161a">L2</text><text x="266" y="338" text-anchor="middle" font-family="ui-monospace, SFMono-Regular, Menlo, Consolas, monospace" font-size="11" stroke="#f4f2eb" stroke-width="3" paint-order="stroke" stroke-linejoin="round" fill="#8d8877">2.5m</text><text x="88" y="377" text-anchor="start" font-family="ui-monospace, SFMono-Regular, Menlo, Consolas, monospace" font-size="12" stroke="#f4f2eb" stroke-width="3" paint-order="stroke" stroke-linejoin="round" font-weight="600" fill="#14161a">K1</text><text x="130" y="377" text-anchor="start" font-family="ui-monospace, SFMono-Regular, Menlo, Consolas, monospace" font-size="11" stroke="#f4f2eb" stroke-width="3" paint-order="stroke" stroke-linejoin="round" fill="#8d8877">L1 ↔ L2  k=0.98</text><text x="266" y="426" text-anchor="middle" font-family="ui-monospace, SFMono-Regular, Menlo, Consolas, monospace" font-size="12" stroke="#f4f2eb" stroke-width="3" paint-order="stroke" stroke-linejoin="round" font-weight="600" fill="#14161a">RL</text><text x="266" y="472" text-anchor="middle" font-family="ui-monospace, SFMono-Regular, Menlo, Consolas, monospace" font-size="11" stroke="#f4f2eb" stroke-width="3" paint-order="stroke" stroke-linejoin="round" fill="#8d8877">100</text><text x="96" y="116" text-anchor="middle" font-family="ui-monospace, SFMono-Regular, Menlo, Consolas, monospace" font-size="11" stroke="#f4f2eb" stroke-width="3" paint-order="stroke" stroke-linejoin="round" letter-spacing="0.08em" fill="#8d8877">PRI</text><text x="224" y="292" text-anchor="middle" font-family="ui-monospace, SFMono-Regular, Menlo, Consolas, monospace" font-size="11" stroke="#f4f2eb" stroke-width="3" paint-order="stroke" stroke-linejoin="round" letter-spacing="0.08em" fill="#8d8877">SEC</text><text x="28" y="538" text-anchor="start" font-family="ui-monospace, SFMono-Regular, Menlo, Consolas, monospace" font-size="12" stroke="#f4f2eb" stroke-width="3" paint-order="stroke" stroke-linejoin="round" letter-spacing="0.1em" fill="#8d8877">COUPLED INDUCTOR TRANSFORMER</text></svg>